<svg xmlns="http://www.w3.org/2000/svg" viewBox="0 0 1000 1000"><defs><style>.cls-1{isolation:isolate;}.cls-2{fill:#ccb59d;}.cls-3{fill:#c5a998;}.cls-4{fill:#ddd0be;}.cls-5{fill:#e3dbcc;}.cls-6{fill:#ae3331;}.cls-7{fill:#e53e31;}.cls-8{fill:#f95048;}.cls-9{fill:#336b7c;}.cls-10{fill:#54c2d2;}.cls-11{fill:#75cfd8;}.cls-12{fill:#ffecd9;}.cls-13{fill:#f5c575;}.cls-14{fill:#f5d482;}.cls-15{fill:#f5edc8;}.cls-16{fill:#f5dbb1;}.cls-17{fill:#f5b56b;}.cls-18{fill:#e6e6e6;mix-blend-mode:multiply;}.cls-19{fill:#f3ddcf;}.cls-20{fill:#ffe2c4;}</style></defs><g class="cls-1"><g id="Layer_1" data-name="Layer 1"><path class="cls-2" d="M646.88,413.64s-2.42,14.25,9.61,17.64S826,472.48,826,472.48s31-33.55-34.68-50S646.88,413.64,646.88,413.64Z"/><path class="cls-2" d="M640.61,572.62c-2.08,32.33-27.11,46.93-26.08,35.47s5.74-34.43-5.06-50.84c-7.3-11.11-41.38-51.24-75.09-90.25-37.08-42.93-73.72-84.49-73.72-84.49l90-33s26.88,55.69,51.26,112C622.64,509.43,641.57,557.75,640.61,572.62Z"/><path class="cls-3" d="M601.91,461.53c-21.23,5.3-44.81,6.47-67.53,5.47-37.08-42.93-73.72-84.49-73.72-84.49l90-33S577.53,405.22,601.91,461.53Z"/><path class="cls-2" d="M803.14,460.92S905,595.39,918,618.05c9.15,15.94,5.17,38.24,4.29,49.39s20.31-3.05,22.08-34.46-84.35-263.9-84.35-263.9Z"/><path class="cls-2" d="M453.23,365.31S451,387,477.11,390.54c19.38,2.67,100.92,22.3,104.25,22.88a18.63,18.63,0,0,0,18.58-8.61c6.78-10.3,27.57-24.64,51.63-9.38s.26-49-58.15-44.2S453.23,365.31,453.23,365.31Z"/><path class="cls-4" d="M860.06,369.08l-40,85.08a16.6,16.6,0,0,1-19,9.06l-54.55-13.45L659.4,428.29a16.68,16.68,0,0,1-12.49-18.21c.61-5.36.14-11.27-3.23-15.9-2.57-3.53-6.84-6.31-13.63-7.49-15.78-2.77-27.79,8.75-34.33,17.29A16.56,16.56,0,0,1,579,410l-45.61-10.22-33-7.4-34.42-7.71a16.6,16.6,0,0,1-10.6-24.75l38.48-64.14L596,316.22l39.84,8,76.52,15.31,137.95,27.62h0Z"/><path class="cls-5" d="M596,316.22l-95.63,76.16-34.42-7.71a16.6,16.6,0,0,1-10.6-24.75l38.48-64.14Z"/><path class="cls-5" d="M850.27,367.13,746.52,449.77,659.4,428.29a16.68,16.68,0,0,1-12.49-18.21c.61-5.36.14-11.27-3.23-15.9l68.64-54.67Z"/><path class="cls-6" d="M817.3,400.6,805.67,425c-4.61,9.66-15.74,14.92-26.62,12.56l-84.52-18.25a24.57,24.57,0,0,1-6.95-2.65,23.5,23.5,0,0,1-3.31-2.3,21.6,21.6,0,0,1-5.71-26.54l11.82-23.33c4.71-9.29,15.51-14.32,26.12-12.15l84.31,17.21A23.63,23.63,0,0,1,813,376.08l.52.56A21.45,21.45,0,0,1,817.3,400.6Z"/><path class="cls-7" d="M817.29,400.6l-1.45,3L805.68,425c-4.62,9.66-15.75,14.92-26.64,12.56l-.55-.12-56.76-12.25h0L706.94,422l-12.41-2.67a24.57,24.57,0,0,1-6.95-2.65c-.57-.39-1.13-.81-1.66-1.25a21.88,21.88,0,0,1-5.86-15.08,21.39,21.39,0,0,1,2.34-9.38l11.82-23.32c4.72-9.3,15.51-14.32,26.12-12.16L728,357l41.46,8.47,15,3,20.28,4.14a23.8,23.8,0,0,1,8.37,3.42c.19.19.36.37.53.56A21.43,21.43,0,0,1,817.29,400.6Z"/><path class="cls-8" d="M769.42,365.47,706.94,422l-12.41-2.67a24.57,24.57,0,0,1-6.95-2.65c-.57-.39-1.13-.81-1.66-1.25a21.88,21.88,0,0,1-5.86-15.08L728,357Z"/><path class="cls-8" d="M817.29,400.6l-1.45,3-37.35,33.76-56.76-12.25,62.65-56.64,20.28,4.14a23.8,23.8,0,0,1,8.37,3.42c.19.19.36.37.53.56A21.43,21.43,0,0,1,817.29,400.6Z"/><path class="cls-9" d="M603.84,354,590.6,377.58c-5.1,9.07-16.21,13.79-27,11.45L496.81,374.5a24.16,24.16,0,0,1-14.14-8.76,20.93,20.93,0,0,1-1.55-23.7l13-22.05c5.11-8.66,15.76-13.2,26.19-11.17l67,13A23.8,23.8,0,0,1,604,333.72,20.75,20.75,0,0,1,603.84,354Z"/><path class="cls-10" d="M606.5,345.54a20.84,20.84,0,0,1-2.66,8.5L590.6,377.58c-5.1,9.07-16.21,13.79-27,11.45l-4.22-.92-48.16-10.47h0l-11.38-2.48-3.05-.66a24.1,24.1,0,0,1-14.13-8.76A20.73,20.73,0,0,1,483,345l13-22.05c5.11-8.66,15.76-13.19,26.2-11.17l3.79.74,35.52,6.91,11.62,2.26,16.11,3.14A24.18,24.18,0,0,1,604,333.72,20.9,20.9,0,0,1,606.5,345.54Z"/><path class="cls-11" d="M561.54,319.4l-61.68,55.76-3.05-.66a24.1,24.1,0,0,1-14.13-8.76A20.83,20.83,0,0,1,480.13,354L526,312.49Z"/><path class="cls-11" d="M606.5,345.54l-47.09,42.57-48.16-10.47,61.91-56,16.11,3.14A24.18,24.18,0,0,1,604,333.72,20.9,20.9,0,0,1,606.5,345.54Z"/><path class="cls-12" d="M393.23,364.33l10,57.38q23.28,133.77,46.53,267.51l10,57.25q1.32,7.6,2.65,15.22a37.82,37.82,0,0,1-19.94,40.08A429,429,0,0,1,266,849.38a37.39,37.39,0,0,1-17.83-3.54,37.8,37.8,0,0,1-19.06-20.38l-5.88-14.94L103.65,506.31,81.07,448.88Z"/><path class="cls-13" d="M73.72,421.74s-6.85-17.87,12-24.16c0,0-5.79-27.87,20-34.85,0,0-1.47-18.44,17.17-17,0,0-5.87-23.13,23.47-28.87,0,0,10.07-29.66,42.11-15.68,0,0,6.37-26.44,30.67-17.13,0,0,30.14-23.47,48,7.6,0,0,15.6-22.47,38-8.51,0,0,16.77-4.55,20,14,0,0,15.61-8.94,25,6.77,0,0,15.43-5.36,18.68,13.18,0,0,18.28,3.89,17,20.12,0,0-42.27,34.4-145.09,62.25S73.72,421.74,73.72,421.74Z"/><path class="cls-14" d="M82.77,419.28s-10.8-23.56,11-33.44c0,0,5-22.88,30.25-13,20.73,8.07,11.51,21.29,11.51,21.29s19.06-1.32,25.69,15C170.4,431.65,82.77,419.28,82.77,419.28Z"/><path class="cls-14" d="M240,365.82s-14.91,7.06-8.2,21c7.7,16.07,31.83-5.53,31.83-5.53S296.56,379,282,359.57c0,0,7.78-5.51.34-15s-21-10.7-26.7,4.08C255.66,348.61,237.61,345.55,240,365.82Z"/><path class="cls-15" d="M219.71,287.09s-9.85,4.67-5.42,13.9c5.09,10.61,21-3.65,21-3.65s21.74-1.52,12.14-14.37c0,0,5.13-3.64.22-9.93S233.81,266,230,275.74C230,275.74,218.12,273.71,219.71,287.09Z"/><path class="cls-14" d="M184.64,347.92s-14.9,7.07-8.2,21.05c7.71,16.07,31.83-5.53,31.83-5.53s32.93-2.3,18.39-21.76c0,0,7.77-5.52.34-15s-21-10.71-26.71,4.08C200.29,330.72,182.24,327.66,184.64,347.92Z"/><path class="cls-16" d="M142.83,309.12s-14.91,7.06-8.2,21c7.7,16.07,31.83-5.53,31.83-5.53s32.92-2.3,18.38-21.76c0,0,7.78-5.51.34-15s-21-10.7-26.7,4.08C158.48,291.91,140.43,288.85,142.83,309.12Z"/><path class="cls-16" d="M286.3,315.17s13.92,8.86,22.18-4.25c9.51-15.07-21.62-24-21.62-24s-8.15-22.82-28.2-4c0,0-8.81-3.65-12.92,7.71s2.11,23.48,17.67,20.44C263.41,311.07,270.41,328,286.3,315.17Z"/><path class="cls-14" d="M205.93,281.94s-20.42-11-20.21,19.11c0,0-10.39,6.2-4.9,18.84s27,6.38,32.64.87c0,0,16.17,2.24,17.32-13.08s-8.93-13.63-8.93-13.63S226.46,275.86,205.93,281.94Z"/><path class="cls-17" d="M104.68,386c-9.7-1.75-11,5.86-9.57,11.73,0,0-4.51.46-4.39,6.37s11.54,12.38,17-2.43c0,0,6.13,3.43,9.66-2.65s-2.1-7.14-2.1-7.14A6.11,6.11,0,0,0,104.68,386Z"/><path class="cls-15" d="M97.06,359.67s-14.58-7.85-14.43,13.64c0,0-7.41,4.43-3.5,13.45s19.66,6.39,22.54-1.46c0,0,12.31,3.68,13.13-7.25s-6.38-9.74-6.38-9.74S111.72,355.33,97.06,359.67Z"/><path class="cls-15" d="M211,304.21s-11.8-6.36-11.68,11c0,0-6,3.58-2.83,10.88s15.58,3.69,18.86.51c0,0,9.34,1.29,10-7.56s-5.17-7.88-5.17-7.88S222.89,300.69,211,304.21Z"/><path class="cls-15" d="M302.08,335.67s-17.67-9.52-17.49,16.54c0,0-9,5.36-4.24,16.3s23.33,5.52,28.25.75c0,0,14,1.94,15-11.32s-7.73-11.79-7.73-11.79S319.85,330.41,302.08,335.67Z"/><path class="cls-16" d="M154.28,367.68s-20.42-11-20.21,19.11c0,0-10.39,6.19-4.91,18.84s27,6.38,32.65.87c0,0,16.17,2.24,17.31-13.08s-8.93-13.64-8.93-13.64S174.81,361.59,154.28,367.68Z"/><path class="cls-16" d="M348.75,355.09s22.37-6.13,1.44-27.78c0,0,3.24-11.65-9.45-17s-23.92,14-24.23,21.9c0,0-13.25,9.53-3.5,21.41s15.87,3.7,15.87,3.7S338.09,373.66,348.75,355.09Z"/><path class="cls-14" d="M301.34,304.46s-14.18,13.76-2.29,26.22c10.7,11.22,40.12,1.94,32.83-16.84,0,0,16.15-7.07,7-23.77S320,291.45,320,291.45,300.15,280.5,301.34,304.46Z"/><path class="cls-14" d="M135.28,338.25s-19.16-3.34-17.09,14.05c0,0-8.34,10.5,5.41,12.37,0,0,8.25,13.07,16.45-4.46,0,0,23.33,4.76,16.84-16C150.2,322.73,135.28,338.25,135.28,338.25Z"/><path class="cls-17" d="M260.43,362c-9.71-1.76-11,5.86-9.57,11.72,0,0-4.52.46-4.39,6.37s11.54,12.38,17-2.42c0,0,6.13,3.42,9.67-2.66s-2.1-7.14-2.1-7.14A6.11,6.11,0,0,0,260.43,362Z"/><path class="cls-17" d="M323,298.93s6.86-4.43,7.75,3.32c0,0,8.54,4.27.8,10.05,0,0,.87,12.49-10.25,7,0,0-4.35,6.37-8.74-.54s2-11.61,4.53-11.27C317.06,307.46,313.66,298,323,298.93Z"/><path class="cls-16" d="M234.48,348.14s-19.15-3.35-17.09,14.05c0,0-8.34,10.49,5.41,12.36,0,0,8.25,13.07,16.45-4.45,0,0,23.34,4.75,16.85-16C249.41,332.62,234.48,348.14,234.48,348.14Z"/><path class="cls-17" d="M161.47,321.24c9.09,3.83,12-3.31,11.9-9.35,0,0,4.51.53,5.68-5.26S170.49,292,162,305.29c0,0-5.23-4.68-10,.48s.49,7.43.49,7.43a6.11,6.11,0,0,0,9,8Z"/><path class="cls-15" d="M155.84,327.24c-13.49.71-12.84,11.28-9.08,18.64,0,0-5.87,2-3.84,9.88s19.27,12.87,21.85-8.57c0,0,9.25,2.64,12-6.58s-5-8.86-5-8.86a8.37,8.37,0,0,0-15.94-4.51Z"/><path class="cls-15" d="M267.9,332.13c-5.35-12.41-15-8.13-20.63-2,0,0-4-4.8-10.6-.18s-5.38,22.55,15.63,17.52c0,0,.73,9.59,10.35,9s6.55-7.81,6.55-7.81a8.36,8.36,0,0,0-1.3-16.51Z"/><path class="cls-15" d="M168.55,401.47c9.44,9.67,16.95,2.2,20-5.49,0,0,5.4,3.07,10-3.62s-3.06-23-20.87-10.76c0,0-4.12-8.7-12.9-4.71s-3.32,9.63-3.32,9.63a8.37,8.37,0,0,0,7.13,15Z"/><path class="cls-17" d="M203.89,356.78c9.09,3.83,12-3.32,11.9-9.36,0,0,4.5.54,5.67-5.26s-8.56-14.6-17.08-1.33c0,0-5.24-4.68-10,.48s.49,7.42.49,7.42a6.11,6.11,0,0,0,9,8Z"/><path class="cls-15" d="M355.73,293.6c-11.47-7.13-17,1.91-18.11,10.1,0,0-6-1.69-8.8,5.9s8.46,21.59,22.84,5.47c0,0,6.07,7.46,13.64,1.5s.93-10.16.93-10.16a8.37,8.37,0,0,0-10.5-12.81Z"/><rect class="cls-7" x="282.06" y="401.06" width="34.09" height="427.8" transform="translate(-150.37 99.59) rotate(-15.16)"/><polygon class="cls-7" points="320.96 827.12 297.15 825.04 165.79 425.93 198.7 417.02 320.96 827.12"/><polygon class="cls-7" points="273.85 824.87 256.4 826.04 121.94 436.59 147.94 429.55 273.85 824.87"/><path class="cls-7" d="M248.16,845.84a37.8,37.8,0,0,1-19.06-20.38l-5.88-14.94L81.07,448.88,99.27,444,243.42,833.11S245.76,838.48,248.16,845.84Z"/><polygon class="cls-7" points="391.25 808.08 410.76 794.26 322.73 383.42 289.83 392.33 391.25 808.08"/><polygon class="cls-7" points="425.85 783.7 441.51 775.9 361.04 371.83 335.03 378.87 425.85 783.7"/><path class="cls-7" d="M393.23,364.33q28.27,162.44,56.52,324.89l10,57.25,1.47,16.13A37.81,37.81,0,0,1,455,789.82c-1.65-7.57-2.33-13.39-2.33-13.39l-72-408.71Z"/><path class="cls-18" d="M393.23,364.33l10,57.38C367.66,417.08,315,416.43,250.09,434c-70.13,19-118,49.42-146.44,72.31L81.07,448.88Z"/><path class="cls-12" d="M403.62,350.61a14.07,14.07,0,0,1-10.39,13.72,1592.13,1592.13,0,0,1-154,50.24A1589.12,1589.12,0,0,1,81.29,448.82c-6.84.86-13.41-1.55-16.16-6.59a14.09,14.09,0,0,1,8.59-20.49c49.81-9.81,102.68-21.92,158-36.93,55-14.9,106.39-31,154.06-47.61a14.33,14.33,0,0,1,8.72.36,13.3,13.3,0,0,1,6.78,5.42A14.49,14.49,0,0,1,403.62,350.61Z"/><path class="cls-19" d="M403.62,350.61a14.07,14.07,0,0,1-10.39,13.72,1592.13,1592.13,0,0,1-154,50.24A1589.12,1589.12,0,0,1,81.29,448.82c-6.84.86-13.41-1.55-16.16-6.59,51.85-8.72,108.25-20.54,168.14-36.64,62.43-16.78,119.28-35.7,170.18-55Z"/><path class="cls-19" d="M459.71,746.47q1.32,7.6,2.65,15.22a37.82,37.82,0,0,1-19.94,40.08A429,429,0,0,1,266,849.38a37.68,37.68,0,0,1-36.89-23.92l-5.88-14.94a352.35,352.35,0,0,0,236.49-64Z"/><ellipse class="cls-20" cx="289.13" cy="585.29" rx="94.43" ry="87.49" transform="translate(-142.96 95.95) rotate(-15.16)"/><path class="cls-7" d="M291.47,682.73A105.47,105.47,0,0,1,236.41,671c-23.93-12.54-40.86-33.3-47.67-58.47s-2.68-51.63,11.64-74.53c14.18-22.67,36.69-39.14,63.37-46.36,55.37-15,111.79,14.84,125.78,66.51h0c14,51.66-19.65,105.9-75,120.89A112,112,0,0,1,291.47,682.73ZM287.7,507a92.32,92.32,0,0,0-18.93,3.07c-22,6-40.52,19.47-52.13,38-11.46,18.32-14.8,39.4-9.4,59.35s18.93,36.47,38.07,46.5c19.39,10.16,42.19,12.47,64.19,6.52,45.16-12.24,72.76-55.92,61.53-97.38h0C361.37,527.46,326.1,504.88,287.7,507Z"/><path class="cls-7" d="M245.63,589.6l-12.29-45.37,10-2.72q6.7-1.82,11,1.08t6.38,10.54q2,7.17-.63,12.2T251,572.15l-.82.22,4,14.91Zm-1.88-41,4.53,16.73.34-.09a4.9,4.9,0,0,0,3.62-3.3,12,12,0,0,0-.29-6.73c-.74-2.72-1.77-4.62-3.11-5.7A5.65,5.65,0,0,0,243.75,548.63Z"/><path class="cls-7" d="M293.23,553.31q3.09,11.41,1.35,18a11,11,0,0,1-8.32,8.3,10.92,10.92,0,0,1-11.43-3.08q-4.74-4.89-8-17t-1.64-18.7A11.81,11.81,0,0,1,285,535.54Q289.77,540.52,293.23,553.31Zm-17.61,3.55q2.52,9.32,4.42,12.58c1.27,2.17,2.67,3.06,4.2,2.64s2.32-1.89,2.31-4.41-.84-6.88-2.52-13.08-3.13-10.28-4.42-12.52-2.71-3.14-4.24-2.72-2.32,1.87-2.31,4.37S273.92,550.6,275.62,556.86Z"/><path class="cls-7" d="M305.28,573.45,293,528.07l10-2.72q6.72-1.82,11,1.08T320.42,537q1.93,7.15-.63,12.2T310.65,556l-.83.22,4,14.9Zm-1.89-41,4.53,16.73.34-.09a4.88,4.88,0,0,0,3.62-3.3c.57-1.7.47-3.94-.28-6.72s-1.78-4.63-3.11-5.71A5.7,5.7,0,0,0,303.39,532.47Z"/><path class="cls-7" d="M262.33,622.92q.76,6.65-1.65,10.89a12.19,12.19,0,0,1-7.81,5.71,10.94,10.94,0,0,1-11.39-3.08q-4.77-4.86-8-16.73-3.33-12.29-1.53-19t8.91-8.62a11.6,11.6,0,0,1,8.81.7q3.8,2,6.49,7.64L249,605.32a12.93,12.93,0,0,0-2.8-5,3.47,3.47,0,0,0-3.45-.85c-1.76.48-2.68,2-2.77,4.55s.72,7,2.42,13.25c1.65,6.07,3.12,10.15,4.44,12.23s2.82,2.89,4.52,2.43a3.54,3.54,0,0,0,2.47-2.92,18.21,18.21,0,0,0-.11-6.77Z"/><path class="cls-7" d="M289.66,605.18q3.1,11.43,1.35,18a11.05,11.05,0,0,1-8.31,8.31,10.91,10.91,0,0,1-11.43-3.08q-4.74-4.89-8-17t-1.65-18.69a11.81,11.81,0,0,1,19.87-5.29Q286.19,592.4,289.66,605.18Zm-17.61,3.56q2.52,9.32,4.42,12.57t4.2,2.65q2.32-.63,2.32-4.41t-2.53-13.09c-1.65-6.1-3.13-10.28-4.42-12.51s-2.7-3.14-4.23-2.73-2.32,1.88-2.32,4.38S270.35,602.48,272.05,608.74Z"/><path class="cls-7" d="M301.71,625.32,289.42,580l10.68-2.89q7-1.9,11.45.35t6.16,8.54a13.94,13.94,0,0,1,.11,7.83,10.11,10.11,0,0,1-4.2,5.57l13.73,19-8.93,2.42-13.26-19.35-.82.23,5.79,21.37Zm1.39-28.22.5-.11.5-.1a7.45,7.45,0,0,0,4.64-3.08,6.42,6.42,0,0,0,.52-5.26,6.09,6.09,0,0,0-3-4.17,7.94,7.94,0,0,0-5.67-.16l-.88.24Z"/><path class="cls-7" d="M332.81,616.9l-12.29-45.37,8.58-2.33,11.72,20c.59,1,1.57,2.75,2.93,5.29s3,5.73,4.95,9.54l.57-.15q-3.28-8-5.6-14.17t-3.16-9.29l-3.62-13.37,7.76-2.1,12.29,45.38-8.41,2.27L337.36,594c-.15-.27-.41-.72-.79-1.35a136.49,136.49,0,0,1-7.41-13.8l-.51.14q3.23,7.9,5.51,14.19c1.53,4.2,2.67,7.72,3.45,10.58l3,11Z"/><path class="cls-17" d="M264.16,300.69s-6.23-5.61,1.21-8.56c0,0,2-9.61,9.76-3.49,0,0,12.14-4.2,9.64,8.3,0,0,7.48,2.61,1.8,8.81s-12.05,1.08-12.39-1.48C274.18,304.27,265.67,310.19,264.16,300.69Z"/><path class="cls-17" d="M351.29,299.62s4.35-2.81,4.91,2.1c0,0,5.41,2.7.51,6.37,0,0,.55,7.91-6.49,4.41,0,0-2.76,4-5.54-.35s1.29-7.35,2.87-7.14C347.55,305,345.39,299,351.29,299.62Z"/><path class="cls-17" d="M211.85,310.51s4.54-2,4.34,2.74c0,0,4.72,3.39-.49,6.12,0,0-.67,7.59-6.82,3.2,0,0-3.23,3.41-5.21-1.16s2.35-6.78,3.81-6.34C207.48,315.07,206.35,309,211.85,310.51Z"/><path class="cls-17" d="M97.61,368.4s4.45-2.72,4.24,2c0,0,4.72,3.39-.48,6.12,0,0-.68,7.59-6.83,3.2,0,0-3.23,3.41-5.2-1.16s2.34-6.78,3.81-6.34C93.15,372.24,91.43,366.59,97.61,368.4Z"/><path class="cls-16" d="M140,177.52s15.93-4.32,11.8-19.26c-4.74-17.18-32.3-.19-32.3-.19s-22.37-9.35-22,18.16c0,0-8.63,4.05-3,14.74s18.78,14.26,27,.71C121.51,191.68,138.73,197.89,140,177.52Z"/><path class="cls-17" d="M114.34,184.13s-8.34.83-5.51-6.66c0,0-5.79-7.92,4-9.56,0,0,5.07-11.81,12.63-1.54,0,0,7-3.77,7.72,4.6s-7.32,9.64-9.43,8.16C123.74,179.13,122.38,189.41,114.34,184.13Z"/><path class="cls-14" d="M59.68,289.05s-8.51,6.78-1,13.35c8.58,7.55,20.19-9.12,20.19-9.12s21.62-7.52,7.74-15.68c0,0,4-4.56-3-8.5s-16.37-2-17.06,7.34C66.54,276.44,53.77,278.14,59.68,289.05Z"/><path class="cls-17" d="M68.25,279.25c-6.89.85-6.15,5.37-3.94,8.39a3.13,3.13,0,0,0-1.6,4.4c1.34,3.29,10.37,4.76,10.88-4.57,0,0,4.84.76,5.92-3.32s-2.92-3.6-2.92-3.6a3.77,3.77,0,0,0-3.52-3.72A4.57,4.57,0,0,0,68.25,279.25Z"/><path class="cls-15" d="M239.77,255.61s13.39-.6,4.36-15.47c0,0,3.32-6.15-3.15-10.8s-15.26,4.83-16.45,9.25c0,0-8.68,3.68-4.71,11.62s8.47,4.11,8.47,4.11S231.39,264.71,239.77,255.61Z"/><path class="cls-17" d="M235.83,250.62s-2.87,4-5.12-.13c0,0-5.79-.48-2.73-5.5,0,0-3.31-6.86,4.22-6.25,0,0,1-4.58,5.07-1.67s1.46,7,0,7.4C237.25,244.47,241.32,249.07,235.83,250.62Z"/></g></g></svg>